<?xml version="1.0" standalone="no"?>
<!DOCTYPE svg PUBLIC "-//W3C//DTD SVG 20010904//EN"
 "http://www.w3.org/TR/2001/REC-SVG-20010904/DTD/svg10.dtd">
<svg version="1.0" xmlns="http://www.w3.org/2000/svg"
 width="512.000000pt" height="512.000000pt" viewBox="0 0 512.000000 512.000000"
 preserveAspectRatio="xMidYMid meet">
<metadata>
Created by potrace 1.14, written by Peter Selinger 2001-2017
</metadata>
<g transform="translate(0.000000,512.000000) scale(0.100000,-0.100000)"
fill="#000000" stroke="none">
<path d="M0 2560 l0 -2560 2560 0 2560 0 0 2560 0 2560 -2560 0 -2560 0 0
-2560z m2373 2042 c10 -10 29 -57 43 -103 48 -158 362 -1402 619 -2454 109
-445 202 -818 207 -827 7 -15 23 -18 96 -18 48 0 105 5 127 11 52 15 110 74
124 127 8 29 11 171 9 460 -3 438 3 523 44 641 23 70 44 101 66 101 10 0 38
-20 62 -45 l44 -45 -18 -87 c-22 -103 -25 -158 -34 -678 l-8 -390 -28 -55
c-36 -72 -97 -133 -160 -162 -46 -20 -70 -23 -233 -26 -167 -4 -183 -2 -200
15 -12 12 -46 124 -102 343 -92 359 -289 1118 -412 1590 -44 168 -143 557
-220 865 -77 308 -145 565 -151 572 -8 10 -84 13 -334 13 -296 0 -331 -2 -402
-21 -197 -52 -361 -188 -451 -371 -75 -152 -74 -147 -80 -679 -6 -456 -7 -478
-26 -499 -17 -18 -26 -20 -70 -15 -93 13 -87 -27 -83 525 l4 485 28 100 c88
320 315 548 621 626 61 15 122 18 486 18 391 1 417 0 432 -17z m1308 -1 c271
-69 495 -285 587 -562 44 -135 52 -231 52 -626 l0 -352 24 -28 c22 -25 32 -29
103 -33 l78 -5 3 -82 c3 -82 3 -82 -24 -89 -45 -11 -175 5 -221 27 -24 11 -57
37 -73 57 -59 71 -62 97 -70 542 -8 455 -11 474 -82 620 -60 121 -177 237
-304 303 -124 63 -187 77 -384 84 -91 3 -171 10 -177 15 -14 11 -18 129 -6
141 3 4 99 7 213 7 171 0 220 -3 281 -19z m-1505 -247 c29 -5 35 -24 98 -289
30 -126 134 -547 230 -935 96 -388 256 -1035 355 -1439 99 -403 186 -739 192
-747 9 -11 47 -14 173 -14 337 1 406 20 525 146 60 62 72 82 97 155 l29 84 0
460 c0 530 5 575 62 575 34 0 109 -44 115 -67 2 -10 0 -126 -3 -258 -4 -132
-8 -337 -8 -455 -2 -268 -14 -340 -76 -465 -80 -161 -226 -278 -403 -322 -56
-14 -112 -17 -332 -15 -146 2 -272 5 -282 8 -9 2 -19 12 -23 22 -4 9 -45 166
-90 347 -46 182 -147 580 -225 885 -78 305 -231 907 -340 1338 -109 430 -204
789 -210 797 -10 12 -43 15 -164 15 -306 -1 -396 -22 -499 -119 -56 -52 -87
-102 -119 -187 -21 -57 -22 -78 -28 -544 -4 -267 -11 -498 -16 -514 -6 -16
-19 -35 -30 -42 -17 -11 -27 -10 -71 10 -28 14 -55 33 -60 43 -5 10 -6 241 -2
513 6 549 6 545 76 690 49 101 160 213 258 263 133 66 202 76 515 70 129 -2
245 -6 256 -9z m1455 -23 c143 -46 282 -171 349 -313 21 -46 44 -104 51 -128
7 -29 14 -195 18 -470 6 -417 7 -426 30 -485 17 -41 42 -77 80 -116 71 -71
122 -89 247 -89 51 0 99 -3 108 -6 13 -5 16 -22 16 -85 0 -76 -1 -79 -26 -85
-77 -19 -293 21 -379 71 -57 33 -158 141 -189 203 -55 109 -58 135 -66 582 -7
394 -8 418 -29 477 -45 123 -137 220 -251 264 -66 25 -161 38 -290 39 -61 0
-100 4 -108 12 -16 16 -16 130 1 147 9 10 53 12 192 8 147 -4 192 -8 246 -26z
m-1645 -259 c6 -4 16 -16 22 -27 12 -23 163 -625 417 -1660 96 -390 186 -746
200 -790 14 -44 71 -266 125 -494 55 -227 105 -420 111 -427 9 -11 75 -14 345
-14 306 0 341 2 412 21 230 61 418 240 490 469 41 128 44 177 40 620 -1 234 1
435 5 448 5 12 16 26 25 31 26 14 113 -3 129 -25 12 -16 13 -91 8 -454 -3
-239 -11 -469 -17 -510 -49 -360 -303 -643 -656 -733 -82 -20 -109 -22 -474
-22 -346 0 -389 2 -404 16 -31 31 -65 134 -140 424 -41 160 -93 358 -114 440
-31 117 -401 1578 -603 2380 -16 66 -34 126 -40 133 -12 15 -156 16 -209 2
-21 -6 -51 -22 -67 -36 -58 -48 -60 -66 -64 -559 -4 -405 -7 -459 -25 -542
-23 -102 -57 -176 -86 -181 -27 -6 -106 75 -106 108 0 14 8 50 17 80 13 46 17
134 22 555 l6 500 29 59 c51 104 125 167 217 185 54 11 370 13 385 3z m1575
-7 c81 -29 142 -93 184 -195 17 -41 20 -85 26 -460 7 -465 9 -482 80 -629 99
-204 314 -330 566 -331 115 0 113 1 113 -86 0 -71 -1 -74 -26 -80 -14 -4 -78
-4 -142 -1 -310 13 -544 170 -678 452 -79 167 -94 280 -94 735 0 265 -2 299
-19 335 -40 87 -82 105 -238 105 -143 0 -153 6 -153 90 0 31 5 61 12 68 19 19
313 16 369 -3z m-2645 -1245 c43 -11 122 -41 174 -66 81 -40 108 -60 180 -133
93 -95 144 -174 190 -293 55 -143 63 -215 61 -601 -1 -220 2 -362 9 -388 13
-48 63 -107 107 -125 21 -9 73 -14 147 -14 91 0 118 -3 130 -16 21 -20 22
-107 1 -124 -10 -8 -60 -11 -177 -8 -144 3 -168 6 -203 25 -58 31 -110 89
-142 158 l-27 60 -7 350 c-11 511 -13 531 -86 685 -36 76 -59 109 -113 161
-118 116 -277 178 -457 179 -115 0 -113 -1 -113 84 0 40 3 76 7 79 15 16 241
7 319 -13z m-30 -281 c94 -28 138 -56 210 -131 71 -74 97 -121 126 -226 19
-72 21 -106 22 -482 1 -386 3 -408 23 -461 31 -84 51 -117 96 -166 100 -109
187 -142 395 -150 163 -7 172 -11 172 -78 0 -75 -8 -78 -199 -72 -242 7 -323
37 -464 175 -52 51 -80 89 -114 157 -60 119 -72 189 -73 445 -1 113 -5 291 -9
395 -6 177 -9 194 -34 248 -40 87 -80 132 -149 166 -56 29 -69 31 -164 31 -56
0 -109 3 -118 6 -13 5 -16 22 -16 84 0 53 4 80 13 84 26 12 215 -4 283 -25z
m-111 -252 c118 -25 177 -103 194 -257 5 -47 7 -218 4 -380 -6 -325 3 -415 52
-546 57 -152 182 -290 336 -369 118 -61 184 -75 377 -82 185 -7 192 -9 192
-78 0 -76 -6 -78 -214 -72 -208 5 -290 22 -421 86 -181 89 -314 227 -400 414
-66 145 -85 258 -85 506 0 92 -3 257 -7 367 -6 189 -7 199 -29 221 -19 19 -34
23 -81 23 -103 0 -103 1 -103 90 0 66 3 79 18 83 34 9 108 6 167 -6z"/>
</g>
</svg>
