<?xml version="1.0" standalone="no"?>
<!DOCTYPE svg PUBLIC "-//W3C//DTD SVG 20010904//EN"
 "http://www.w3.org/TR/2001/REC-SVG-20010904/DTD/svg10.dtd">
<svg version="1.0" xmlns="http://www.w3.org/2000/svg"
 width="655.000000pt" height="655.000000pt" viewBox="0 0 655.000000 655.000000"
 preserveAspectRatio="xMidYMid meet">
<metadata>
Created by potrace 1.14, written by Peter Selinger 2001-2017
</metadata>
<g transform="translate(0.000000,655.000000) scale(0.100000,-0.100000)"
fill="#000000" stroke="none">
<path d="M0 3275 l0 -3275 3275 0 3275 0 0 3275 0 3275 -3275 0 -3275 0 0
-3275z m822 2615 c68 -19 117 -74 145 -165 10 -32 13 -522 13 -2352 l0 -2313
2449 -2 2449 -3 44 -30 c23 -17 53 -49 65 -70 63 -112 49 -205 -43 -296 l-55
-54 -2620 0 -2621 0 -47 51 c-43 47 -78 120 -72 152 1 6 -3 12 -9 12 -5 0 -10
18 -10 40 0 22 5 40 10 40 6 0 9 19 9 43 -1 39 -2 40 -9 12 -4 -16 -8 1044 -9
2356 l-1 2386 26 49 c41 77 73 115 118 135 46 21 112 24 168 9z m4310 -1200
c59 0 105 -37 144 -116 48 -99 23 -204 -91 -384 -19 -30 -53 -86 -76 -123 -22
-37 -54 -84 -71 -103 -38 -43 -72 -97 -176 -279 -96 -168 -174 -289 -212 -330
-15 -16 -54 -75 -85 -130 -140 -245 -262 -443 -296 -480 -34 -37 -116 -167
-164 -259 -26 -51 -89 -104 -139 -117 -22 -6 -63 -8 -91 -4 -55 6 -51 4 -382
233 -81 56 -203 138 -271 181 -67 44 -144 97 -170 119 -71 59 -180 131 -209
138 -22 6 -32 0 -64 -36 -22 -24 -39 -49 -39 -56 0 -7 -20 -38 -44 -68 -44
-53 -92 -125 -216 -321 -82 -130 -116 -177 -166 -234 -23 -25 -78 -104 -121
-176 -73 -119 -141 -222 -218 -330 -16 -23 -50 -71 -75 -105 -74 -104 -109
-136 -170 -154 -90 -27 -190 -6 -239 49 -39 45 -54 102 -49 190 3 62 8 79 45
140 62 103 160 243 228 328 33 42 76 104 95 139 50 90 227 355 269 403 20 22
74 100 121 173 148 232 218 335 270 397 28 33 65 84 83 115 21 35 50 67 82 88
48 33 53 34 131 30 74 -3 86 -6 130 -37 27 -19 70 -53 95 -75 25 -23 84 -63
130 -90 107 -63 309 -199 374 -252 28 -22 103 -75 167 -118 64 -42 120 -81
123 -86 3 -6 16 -10 28 -10 17 0 32 15 57 58 47 77 148 231 176 264 22 27 81
126 177 294 25 45 68 114 94 154 26 40 55 82 63 95 8 12 20 23 25 24 6 1 26
32 46 69 19 37 86 153 148 257 103 172 138 226 221 335 15 19 35 50 44 68 25
47 86 113 121 129 17 7 46 11 65 8 19 -3 56 -5 82 -5z"/>
</g>
</svg>
